<svg width="338" height="210" viewBox="0 0 338 210" fill="none" xmlns="http://www.w3.org/2000/svg">
<rect x="126.114" y="19.08" width="210.482" height="111.321" rx="7.95153" fill="#B4B4B4" stroke="#231F68" stroke-width="2.80642"/>
<rect x="212.645" y="113.095" width="22.4514" height="96.3538" fill="#231F68"/>
<rect x="120.501" y="14.4032" width="206.74" height="108.515" rx="7.95153" fill="#FFF2E5" stroke="#231F68" stroke-width="2.80642"/>
<path d="M189.372 67.7856H188.533C178.701 67.7856 177.216 62.7724 177.216 59.7387V59.1147C177.216 56.0594 178.55 51.1753 188.533 51.1753H189.372C199.098 51.1753 200.518 55.5861 200.518 57.6516V57.9313H194.171C194.041 57.501 193.547 55.4785 188.899 55.4785C184.488 55.4785 183.542 57.4365 183.542 59.2223V59.4805C183.542 61.2017 184.617 63.4609 188.921 63.4609C193.633 63.4609 194.106 61.2017 194.192 60.836H200.518V61.1802C200.518 63.2673 199.012 67.7856 189.372 67.7856ZM201.98 67.4844V51.4765H208.091V57.1352H218.096V51.4765H224.185V67.4844H218.096V61.3954H208.091V67.4844H201.98ZM232.338 51.4765V67.4844H226.249V51.4765H232.338ZM234.401 51.4765H240.512V62.9015H251.614V67.4844H234.401V51.4765ZM253.228 51.4765H259.338V62.9015H270.44V67.4844H253.228V51.4765Z" fill="#1A174F"/>
<path d="M188.762 84.5459H187.959C178.554 84.5459 177.134 79.7507 177.134 76.8489V76.252C177.134 73.3296 178.41 68.6579 187.959 68.6579H188.762C198.064 68.6579 199.423 72.8768 199.423 74.8526V75.1201H193.352C193.228 74.7085 192.755 72.7739 188.309 72.7739C184.09 72.7739 183.185 74.6468 183.185 76.3549V76.6019C183.185 78.2483 184.214 80.4093 188.33 80.4093C192.837 80.4093 193.29 78.2483 193.372 77.8985H199.423V78.2277C199.423 80.224 197.982 84.5459 188.762 84.5459ZM225.398 68.946V84.2578H219.573V68.946H225.398ZM238.485 84.5459H237.682C228.277 84.5459 226.857 79.7507 226.857 76.8489V76.252C226.857 73.3296 228.133 68.6579 237.682 68.6579H238.485C247.787 68.6579 249.145 72.8768 249.145 74.8526V75.1201H243.074C242.951 74.7085 242.477 72.7739 238.032 72.7739C233.813 72.7739 232.907 74.6468 232.907 76.3549V76.6019C232.907 78.2483 233.936 80.4093 238.053 80.4093C242.56 80.4093 243.012 78.2483 243.095 77.8985H249.145V78.2277C249.145 80.224 247.705 84.5459 238.485 84.5459ZM256.389 84.2578H250.544V68.946H256.389V74.9966L263.922 68.946H271.187L262.275 75.9022L271.475 84.2578H263.86L256.389 77.4045V84.2578Z" fill="#6F00FF"/>
<g clip-path="url(#clip0_85_1448)">
<path d="M207.137 85.1532C209.016 85.1532 210.54 83.6374 210.54 81.7675C210.54 79.8977 209.016 78.3818 207.137 78.3818C205.258 78.3818 203.734 79.8977 203.734 81.7675C203.734 83.6374 205.258 85.1532 207.137 85.1532Z" fill="white"/>
<path d="M211.469 81.6746C211.462 81.0519 211.438 80.379 211.455 79.7563C211.501 78.0742 211.547 76.3956 211.593 74.7135C211.635 73.1674 211.533 71.6356 211.515 70.0859C211.512 69.6779 211.501 69.2449 211.293 68.8942C211.103 68.572 210.768 68.3573 210.416 68.2356C209.557 67.935 208.546 68.139 207.866 68.751C207.352 69.2127 207.042 69.8927 207.003 70.587C206.982 70.9556 207.077 71.3028 207.088 71.6678C207.102 72.1045 207.116 72.5411 207.13 72.9813C207.19 74.7708 207.246 76.5567 207.306 78.3462" fill="white"/>
<path d="M211.469 81.6746C211.462 81.0519 211.438 80.379 211.455 79.7563C211.501 78.0742 211.547 76.3956 211.593 74.7135C211.635 73.1674 211.533 71.6356 211.515 70.0859C211.512 69.6779 211.501 69.2449 211.293 68.8942C211.103 68.572 210.768 68.3573 210.416 68.2356C209.557 67.935 208.546 68.139 207.866 68.751C207.352 69.2127 207.042 69.8927 207.003 70.587C206.982 70.9556 207.077 71.3028 207.088 71.6678C207.102 72.1045 207.116 72.5411 207.13 72.9813C207.19 74.7708 207.246 76.5567 207.306 78.3462" stroke="#1A174F" stroke-width="0.643138" stroke-linecap="round" stroke-linejoin="round"/>
<path d="M206.756 84.7753C206.83 83.605 206.982 82.4132 207.517 81.3753C208.053 80.3374 209.049 79.4785 210.198 79.4105C210.775 79.3747 211.378 79.5357 211.917 79.3282C212.364 79.1564 212.685 78.7698 213.051 78.4585C214.238 77.4456 216.052 77.2703 217.408 78.0362C217.817 78.2652 218.186 78.5802 218.426 78.9846C218.666 79.389 218.768 79.8936 218.641 80.3482C218.465 80.9673 217.838 81.4111 217.232 81.6008C216.626 81.7905 215.981 81.8012 215.347 81.8406C214.713 81.88 214.065 81.948 213.502 82.2486C213.002 82.5134 212.6 82.9429 212.29 83.4189C211.98 83.8949 211.748 84.421 211.519 84.9435C210.895 86.368 209.106 86.9406 207.574 87.0122C205.351 87.1124 202.529 85.9635 202.265 83.4046C202.241 83.1791 202.241 82.9429 202.304 82.7246C202.448 82.2092 202.85 81.7905 203.164 81.3789C203.593 80.817 204.118 80.3374 204.646 79.865C205.407 79.185 206.207 78.4978 207.168 78.1757" fill="white"/>
<path d="M206.756 84.7753C206.83 83.605 206.982 82.4132 207.517 81.3753C208.053 80.3374 209.049 79.4785 210.198 79.4105C210.775 79.3747 211.378 79.5357 211.917 79.3282C212.364 79.1564 212.685 78.7698 213.051 78.4585C214.238 77.4456 216.052 77.2703 217.408 78.0362C217.817 78.2652 218.186 78.5802 218.426 78.9846C218.666 79.389 218.768 79.8936 218.641 80.3482C218.465 80.9673 217.838 81.4111 217.232 81.6008C216.626 81.7905 215.981 81.8012 215.347 81.8406C214.713 81.88 214.065 81.948 213.502 82.2486C213.002 82.5134 212.6 82.9429 212.29 83.4189C211.98 83.8949 211.748 84.421 211.519 84.9435C210.895 86.368 209.106 86.9406 207.574 87.0122C205.351 87.1124 202.529 85.9635 202.265 83.4046C202.241 83.1791 202.241 82.9429 202.304 82.7246C202.448 82.2092 202.85 81.7905 203.164 81.3789C203.593 80.817 204.118 80.3374 204.646 79.865C205.407 79.185 206.207 78.4978 207.168 78.1757" stroke="#1A174F" stroke-width="0.643138" stroke-linecap="round" stroke-linejoin="round"/>
<path d="M203.84 76.11C202.86 75.8809 201.769 76.2603 201.131 77.0513C200.553 77.7671 200.363 78.7441 200.409 79.6675C200.448 80.4906 200.67 81.3281 201.177 81.9687C201.684 82.6094 202.519 83.0174 203.315 82.8742C203.924 82.7633 204.438 82.3624 204.928 81.9723C205.182 81.7719 205.432 81.5679 205.685 81.3675" fill="white"/>
<path d="M203.84 76.11C202.86 75.8809 201.769 76.2603 201.131 77.0513C200.553 77.7671 200.363 78.7441 200.409 79.6675C200.448 80.4906 200.67 81.3281 201.177 81.9687C201.684 82.6094 202.519 83.0174 203.315 82.8742C203.924 82.7633 204.438 82.3624 204.928 81.9723C205.182 81.7719 205.432 81.5679 205.685 81.3675" stroke="#1A174F" stroke-width="0.643138" stroke-linecap="round" stroke-linejoin="round"/>
<path d="M207.506 75.0037C206.752 74.7317 205.921 74.6744 205.136 74.839C204.755 74.9178 204.375 75.0574 204.086 75.3186C203.811 75.5692 203.635 75.9127 203.498 76.2599C203.093 77.2835 202.948 78.4108 203.086 79.506C203.202 80.4294 203.406 81.3062 204.181 81.7894C204.741 82.1365 205.555 82.226 206.154 81.8967C207.091 81.3814 207.51 79.8388 207.51 79.8388C207.654 79.234 207.802 78.6327 207.947 78.0279" fill="white"/>
<path d="M207.506 75.0037C206.752 74.7317 205.921 74.6744 205.136 74.839C204.755 74.9178 204.375 75.0574 204.086 75.3186C203.811 75.5692 203.635 75.9127 203.498 76.2599C203.093 77.2835 202.948 78.4108 203.086 79.506C203.202 80.4294 203.406 81.3062 204.181 81.7894C204.741 82.1365 205.555 82.226 206.154 81.8967C207.091 81.3814 207.51 79.8388 207.51 79.8388C207.654 79.234 207.802 78.6327 207.947 78.0279" stroke="#1A174F" stroke-width="0.643138" stroke-linecap="round" stroke-linejoin="round"/>
<path d="M207.321 80.5529L207.314 78.3375C207.268 76.9417 207.229 75.5423 207.176 74.1465C207.138 73.1301 207.05 72.1173 207.032 71.1044C207.018 70.2992 207.208 69.4438 207.775 68.8497C208.575 68.0086 210.308 67.7259 211.136 68.6851C211.484 69.0895 211.512 69.5762 211.519 70.0844C211.537 71.6377 211.639 73.1695 211.597 74.712L211.519 77.1564" fill="white"/>
<path d="M207.321 80.5529L207.314 78.3375C207.268 76.9417 207.229 75.5423 207.176 74.1465C207.138 73.1301 207.05 72.1173 207.032 71.1044C207.018 70.2992 207.208 69.4438 207.775 68.8497C208.575 68.0086 210.308 67.7259 211.136 68.6851C211.484 69.0895 211.512 69.5762 211.519 70.0844C211.537 71.6377 211.639 73.1695 211.597 74.712L211.519 77.1564" stroke="#1A174F" stroke-width="0.643138" stroke-linecap="round" stroke-linejoin="round"/>
<path d="M211.526 77.0527L211.512 77.5824" stroke="#1A174F" stroke-width="0.643138" stroke-linecap="round" stroke-linejoin="round"/>
</g>
<rect x="18.7196" y="83.0254" width="135.804" height="71.2818" rx="5.22324" transform="rotate(-17.9526 18.7196 83.0254)" fill="#FFF2E5" stroke="#231F68" stroke-width="1.8435"/>
<rect x="12.1454" y="78.6943" width="135.804" height="71.2818" rx="5.22324" transform="rotate(-17.9526 12.1454 78.6943)" fill="#FFF2E5" stroke="#231F68" stroke-width="1.8435"/>
<path d="M144.339 46.1018L162.644 102.597C163.533 105.341 162.029 108.286 159.285 109.175L40.0308 147.815C37.2866 148.704 34.3411 147.2 33.4519 144.456L15.162 88.0061C14.1332 84.8308 16.2871 81.4903 19.6153 81.0892C32.7721 79.5037 60.3788 75.6595 79.8493 69.3519C99.4387 63.0057 124.88 49.5981 136.707 43.1024C139.633 41.4952 143.315 42.9393 144.339 46.1018Z" fill="#FFF2E5" stroke="#231F68" stroke-width="1.8435"/>
<path d="M68.1308 104.706L67.6065 104.876C61.4619 106.866 59.5192 104.034 58.9049 102.138L58.7786 101.749C58.16 99.8393 58.0047 96.5171 64.2433 94.4957L64.7677 94.3258C70.845 92.3568 72.6254 94.8255 73.0437 96.1163L73.1003 96.2911L69.1339 97.5762C68.9661 97.3334 68.2474 96.1698 65.3432 97.1108C62.5869 98.0038 62.3917 99.419 62.7533 100.535L62.8056 100.696C63.1541 101.772 64.2838 102.966 66.9728 102.095C69.9174 101.141 69.7557 99.633 69.7355 99.387L73.6884 98.1062L73.7581 98.3213C74.1807 99.6255 74.1543 102.754 68.1308 104.706ZM75.9485 101.965L72.7073 91.9613L76.5258 90.7241L77.6715 94.2603L83.9236 92.2346L82.7779 88.6984L86.5829 87.4656L89.8241 97.4689L86.019 98.7018L84.7862 94.8967L78.5341 96.9224L79.767 100.727L75.9485 101.965ZM91.6778 85.8148L94.9189 95.8182L91.1139 97.051L87.8727 87.0477L91.6778 85.8148ZM92.9673 85.397L96.7857 84.1598L99.099 91.2993L106.037 89.0514L106.965 91.9153L96.2084 95.4004L92.9673 85.397ZM104.732 81.5852L108.55 80.348L110.864 87.4875L117.801 85.2396L118.729 88.1034L107.973 91.5885L104.732 81.5852Z" fill="#1A174F"/>
<path d="M71.0401 114.975L70.5385 115.138C64.6612 117.042 62.8029 114.333 62.2153 112.52L62.0945 112.147C61.5028 110.32 61.3542 107.143 67.3216 105.209L67.8232 105.047C73.6363 103.163 75.3393 105.525 75.7393 106.759L75.7935 106.926L71.9996 108.156C71.8391 107.924 71.1516 106.81 68.3737 107.711C65.7372 108.565 65.5505 109.918 65.8964 110.986L65.9464 111.14C66.2797 112.169 67.3603 113.311 69.9325 112.478C72.749 111.565 72.5944 110.123 72.575 109.888L76.356 108.663L76.4227 108.868C76.8269 110.116 76.8017 113.108 71.0401 114.975ZM90.7751 97.8091L93.8753 107.378L90.2357 108.557L87.1355 98.9883L90.7751 97.8091ZM102.112 104.908L101.61 105.07C95.7329 106.975 93.8747 104.266 93.2871 102.452L93.1663 102.079C92.5746 100.253 92.426 97.0752 98.3934 95.1418L98.895 94.9793C104.708 93.0958 106.411 95.4572 106.811 96.6919L106.865 96.859L103.071 98.0883C102.911 97.8561 102.223 96.743 99.4454 97.6431C96.809 98.4973 96.6223 99.851 96.9682 100.918L97.0182 101.073C97.3515 102.102 98.4321 103.244 101.004 102.41C103.821 101.498 103.666 100.056 103.647 99.8203L107.428 98.5952L107.494 98.801C107.899 100.049 107.873 103.041 102.112 104.908ZM113.242 101.103L109.59 102.286L106.489 92.7176L110.142 91.5341L111.367 95.3152L114.849 90.009L119.389 88.5381L115.228 94.6893L122.669 98.0482L117.911 99.5899L111.854 96.8199L113.242 101.103Z" fill="#6F00FF"/>
<g clip-path="url(#clip1_85_1448)">
<path d="M82.6926 111.792C83.867 111.411 84.512 110.155 84.1334 108.987C83.7548 107.818 82.4959 107.18 81.3216 107.56C80.1473 107.941 79.5022 109.196 79.8808 110.365C80.2594 111.533 81.5183 112.172 82.6926 111.792Z" fill="white"/>
<path d="M84.6941 108.74C84.5636 108.352 84.4119 107.937 84.2968 107.544C83.9849 106.484 83.6736 105.425 83.3617 104.365C83.075 103.39 82.7011 102.454 82.3763 101.489C82.2915 101.235 82.1972 100.966 81.9963 100.789C81.8122 100.626 81.5597 100.56 81.3149 100.555C80.7169 100.541 80.1265 100.873 79.8256 101.393C79.5977 101.786 79.5417 102.274 79.6581 102.716C79.7195 102.95 79.8492 103.148 79.9297 103.374C80.027 103.644 80.1242 103.914 80.2221 104.186C80.6218 105.292 81.0187 106.397 81.4184 107.503" fill="white"/>
<path d="M84.6941 108.74C84.5636 108.352 84.4119 107.937 84.2968 107.544C83.9849 106.484 83.6736 105.425 83.3617 104.365C83.075 103.39 82.7011 102.454 82.3763 101.489C82.2915 101.235 82.1972 100.966 81.9963 100.789C81.8122 100.626 81.5597 100.56 81.3149 100.555C80.7169 100.541 80.1265 100.873 79.8256 101.393C79.5977 101.786 79.5417 102.274 79.6581 102.716C79.7195 102.95 79.8492 103.148 79.9297 103.374C80.027 103.644 80.1242 103.914 80.2221 104.186C80.6218 105.292 81.0187 106.397 81.4184 107.503" stroke="#1A174F" stroke-width="0.422468" stroke-linecap="round" stroke-linejoin="round"/>
<path d="M82.3821 111.635C82.1914 110.888 82.0447 110.113 82.1691 109.356C82.2936 108.599 82.7426 107.86 83.4464 107.585C83.8001 107.446 84.2091 107.425 84.5039 107.186C84.7486 106.988 84.8707 106.681 85.0365 106.413C85.5733 105.539 86.6713 105.063 87.6739 105.267C87.9756 105.327 88.2704 105.449 88.502 105.653C88.7336 105.857 88.8996 106.152 88.9124 106.462C88.9277 106.884 88.6257 107.289 88.2855 107.53C87.9453 107.771 87.5447 107.908 87.1565 108.061C86.7682 108.214 86.377 108.388 86.0857 108.69C85.8267 108.957 85.6628 109.306 85.5654 109.667C85.4681 110.027 85.4294 110.403 85.3921 110.775C85.2909 111.792 84.2887 112.512 83.3456 112.867C81.977 113.38 79.9813 113.233 79.2981 111.687C79.237 111.551 79.1892 111.404 79.1846 111.255C79.1705 110.903 79.3367 110.56 79.4492 110.24C79.604 109.801 79.8349 109.395 80.0694 108.993C80.4072 108.414 80.7677 107.823 81.3034 107.427" fill="white"/>
<path d="M82.3821 111.635C82.1914 110.888 82.0447 110.113 82.1691 109.356C82.2936 108.599 82.7426 107.86 83.4464 107.585C83.8001 107.446 84.2091 107.425 84.5039 107.186C84.7486 106.988 84.8707 106.681 85.0365 106.413C85.5733 105.539 86.6713 105.063 87.6739 105.267C87.9756 105.327 88.2704 105.449 88.502 105.653C88.7336 105.857 88.8996 106.152 88.9124 106.462C88.9277 106.884 88.6257 107.289 88.2855 107.53C87.9453 107.771 87.5447 107.908 87.1565 108.061C86.7682 108.214 86.377 108.388 86.0857 108.69C85.8267 108.957 85.6628 109.306 85.5654 109.667C85.4681 110.027 85.4294 110.403 85.3921 110.775C85.2909 111.792 84.2887 112.512 83.3456 112.867C81.977 113.38 79.9813 113.233 79.2981 111.687C79.237 111.551 79.1892 111.404 79.1846 111.255C79.1705 110.903 79.3367 110.56 79.4492 110.24C79.604 109.801 79.8349 109.395 80.0694 108.993C80.4072 108.414 80.7677 107.823 81.3034 107.427" stroke="#1A174F" stroke-width="0.422468" stroke-linecap="round" stroke-linejoin="round"/>
<path d="M78.802 106.809C78.1437 106.864 77.5382 107.322 77.2999 107.946C77.0838 108.51 77.1628 109.159 77.3784 109.727C77.5692 110.233 77.8775 110.712 78.3242 111.009C78.7708 111.307 79.3751 111.393 79.8436 111.142C80.2019 110.95 80.4421 110.595 80.6691 110.252C80.787 110.076 80.902 109.897 81.0199 109.721" fill="white"/>
<path d="M78.802 106.809C78.1437 106.864 77.5382 107.322 77.2999 107.946C77.0838 108.51 77.1628 109.159 77.3784 109.727C77.5692 110.233 77.8775 110.712 78.3242 111.009C78.7708 111.307 79.3751 111.393 79.8436 111.142C80.2019 110.95 80.4421 110.595 80.6691 110.252C80.787 110.076 80.902 109.897 81.0199 109.721" stroke="#1A174F" stroke-width="0.422468" stroke-linecap="round" stroke-linejoin="round"/>
<path d="M80.8694 105.375C80.3433 105.358 79.8122 105.49 79.3547 105.752C79.1329 105.879 78.9235 106.043 78.7959 106.265C78.6749 106.477 78.6344 106.727 78.6189 106.972C78.573 107.693 78.711 108.427 79.0186 109.084C79.2782 109.637 79.5834 110.144 80.1654 110.289C80.5857 110.392 81.1123 110.284 81.4198 109.957C81.901 109.445 81.8506 108.396 81.8506 108.396C81.8184 107.989 81.7891 107.583 81.7569 107.176" fill="white"/>
<path d="M80.8694 105.375C80.3433 105.358 79.8122 105.49 79.3547 105.752C79.1329 105.879 78.9235 106.043 78.7959 106.265C78.6749 106.477 78.6344 106.727 78.6189 106.972C78.573 107.693 78.711 108.427 79.0186 109.084C79.2782 109.637 79.5834 110.144 80.1654 110.289C80.5857 110.392 81.1123 110.284 81.4198 109.957C81.901 109.445 81.8506 108.396 81.8506 108.396C81.8184 107.989 81.7891 107.583 81.7569 107.176" stroke="#1A174F" stroke-width="0.422468" stroke-linecap="round" stroke-linejoin="round"/>
<path d="M81.8778 108.88L81.4249 107.497C81.1136 106.634 80.8061 105.767 80.4905 104.906C80.2605 104.279 80.0004 103.663 79.7843 103.034C79.6124 102.534 79.5581 101.961 79.7922 101.475C80.1216 100.787 81.1473 100.26 81.8588 100.691C82.1586 100.873 82.2747 101.172 82.382 101.488C82.7075 102.455 83.0815 103.392 83.3674 104.364L83.8139 105.907" fill="white"/>
<path d="M81.8778 108.88L81.4249 107.497C81.1136 106.634 80.8061 105.767 80.4905 104.906C80.2605 104.279 80.0004 103.663 79.7843 103.034C79.6124 102.534 79.5581 101.961 79.7922 101.475C80.1216 100.787 81.1473 100.26 81.8588 100.691C82.1586 100.873 82.2747 101.172 82.382 101.488C82.7075 102.455 83.0815 103.392 83.3674 104.364L83.8139 105.907" stroke="#1A174F" stroke-width="0.422468" stroke-linecap="round" stroke-linejoin="round"/>
<path d="M83.794 105.842L83.8924 106.176" stroke="#1A174F" stroke-width="0.422468" stroke-linecap="round" stroke-linejoin="round"/>
</g>
<path d="M114.802 61.5821C117.706 60.6413 119.33 57.5026 118.006 54.7525C116.487 51.5949 114.564 48.639 112.28 45.9608C108.798 41.8773 104.546 38.5196 99.767 36.0794C94.9876 33.6392 89.7743 32.1642 84.4248 31.7388C79.0754 31.3133 73.6945 31.9457 68.5894 33.5997C63.4843 35.2538 58.755 37.8972 54.6715 41.379C50.588 44.8608 47.2303 49.1128 44.7901 53.8922C42.3499 58.6717 40.8749 63.885 40.4495 69.2344C40.1704 72.7429 40.3464 76.2648 40.9672 79.7136C41.5079 82.7174 44.6642 84.3072 47.5677 83.3665V83.3665C50.4711 82.4258 52.0066 79.3056 51.6171 76.2785C51.3546 74.2382 51.3034 72.1713 51.4673 70.1107C51.7776 66.2081 52.8537 62.4049 54.6339 58.9182C56.4141 55.4314 58.8636 52.3295 61.8427 49.7894C64.8217 47.2493 68.2718 45.3209 71.9961 44.1142C75.7204 42.9075 79.646 42.4462 83.5485 42.7566C87.4511 43.0669 91.2544 44.143 94.7411 45.9232C98.2279 47.7034 101.33 50.1529 103.87 53.132C105.211 54.7049 106.382 56.4091 107.366 58.2157C108.825 60.896 111.899 62.5228 114.802 61.5821V61.5821Z" fill="#231F68"/>
<defs>
<clipPath id="clip0_85_1448">
<rect width="19.9373" height="20.5804" fill="white" transform="translate(199.578 67.2578)"/>
</clipPath>
<clipPath id="clip1_85_1448">
<rect width="13.0965" height="13.519" fill="white" transform="translate(74.3477 102.142) rotate(-17.9526)"/>
</clipPath>
</defs>
</svg>
