<svg width="378" height="251" viewBox="0 0 378 251" fill="none" xmlns="http://www.w3.org/2000/svg">
<path d="M276.336 165.31C299.599 173.026 326.137 182.558 349.925 190.555C352.206 191.315 352.404 194.466 350.245 195.54C340.663 200.236 328.804 203.196 319.436 206.955C310.93 210.371 302.459 213.794 293.96 217.175C288.672 219.284 283.153 221.458 277.484 220.996C269.679 220.345 262.948 214.613 259.386 207.636C255.824 200.659 254.959 192.638 254.967 184.783C254.993 179.502 255.593 173.678 259.345 169.938C263.546 165.74 270.413 165.234 276.371 165.317L276.336 165.31Z" fill="#D0D5FF" stroke="#231F68" stroke-width="4.87303" stroke-linecap="round" stroke-linejoin="round"/>
<path d="M286.839 189.428L296.539 185.442L286.03 181.49L276.448 185.425L286.839 189.428Z" fill="#878FFF" stroke="#231F68" stroke-width="2.41873" stroke-linecap="round" stroke-linejoin="round"/>
<path d="M296.145 185.63L289.314 188.423C288.411 188.794 288.423 190.064 289.34 190.383L298.836 194.903L287.253 189.552C286.98 189.464 286.729 189.452 286.458 189.545L280.211 192.124C279.307 192.495 279.32 193.765 280.237 194.084L289.78 197.78C290.018 197.862 290.27 197.873 290.506 197.773C296.284 195.758 302.068 193.707 307.881 191.698C308.812 191.368 308.842 190.07 307.897 189.71L296.918 185.559C296.68 185.478 296.394 185.46 296.123 185.553L296.145 185.63Z" fill="#878FFF" stroke="#231F68" stroke-width="2.41873" stroke-linecap="round" stroke-linejoin="round"/>
<path d="M274.306 194.583L277.725 193.169L267.34 189.131L276.45 185.395L286.032 181.46L273.674 176.758C271.8 179.19 269.954 181.663 268.08 184.095C267.026 185.451 266 186.849 265.506 188.493C264.554 191.788 266.186 195.393 268.72 197.685C271.247 200.011 274.522 201.068 277.728 202.293C281.879 200.837 285.988 199.41 290.139 197.954L277.766 193.14L274.347 194.554L274.306 194.583Z" fill="#878FFF"/>
<path d="M267.34 189.131L277.725 193.169L274.306 194.583L274.347 194.554L277.766 193.14L290.139 197.954C285.988 199.41 281.879 200.837 277.728 202.293C274.522 201.068 271.247 200.011 268.72 197.685C266.186 195.393 264.554 191.788 265.506 188.493C266 186.849 267.026 185.451 268.08 184.095C269.954 181.663 271.8 179.19 273.674 176.758L286.032 181.46L276.45 185.395M267.34 189.131L265.457 189.896M267.34 189.131L267.166 189.098M267.34 189.131L276.45 185.395M276.45 185.395L275.134 184.892" stroke="#231F68" stroke-width="2.41873" stroke-linecap="round" stroke-linejoin="round"/>
<path d="M267.325 189.154L277.716 193.156L286.826 189.42L276.435 185.418L267.325 189.154Z" fill="#878FFF" stroke="#231F68" stroke-width="2.41873" stroke-linecap="round" stroke-linejoin="round"/>
<path d="M36.2223 155.16C34.2327 160.104 37.2621 166.835 41.217 170.41C45.1369 173.979 55.0879 176.486 60.195 178C89.9487 186.804 116.246 195.314 144.858 203.648C173.436 211.975 202.73 220.909 231.693 227.97C239.58 229.904 247.496 231.879 255.417 233.638C262.953 235.323 270.886 237.591 278.291 235.016C307.243 224.986 326.391 216.821 349.535 204.963C352.381 203.513 352.66 196.904 351.913 193.214C350.644 186.745 340.534 194.599 321.646 202.161C318.512 203.412 315.434 204.746 312.385 206.122C309.537 207.391 306.71 208.736 303.856 210.04C301.001 211.344 298.299 212.605 295.5 213.811C292.422 215.145 289.308 216.291 286.18 217.507C285.082 217.95 283.956 218.351 282.786 218.6C281.129 218.937 279.296 219.059 277.638 218.635C277.359 218.582 276.806 218.441 276.768 218.072C276.502 215.088 276.052 209.644 275.826 208.551" fill="#878FFF"/>
<path d="M36.2223 155.16C34.2327 160.104 37.2621 166.835 41.217 170.41C45.1369 173.979 55.0879 176.486 60.195 178C89.9487 186.804 116.246 195.314 144.858 203.648C173.436 211.975 202.73 220.909 231.693 227.97C239.58 229.904 247.496 231.879 255.417 233.638C262.953 235.323 270.886 237.591 278.291 235.016C307.243 224.986 326.391 216.821 349.535 204.963C352.381 203.513 352.66 196.904 351.913 193.214C350.644 186.745 340.534 194.599 321.646 202.161C318.512 203.412 315.434 204.746 312.385 206.122C309.537 207.391 306.71 208.736 303.856 210.04C301.001 211.344 298.299 212.605 295.5 213.811C292.422 215.145 289.308 216.291 286.18 217.507C285.082 217.95 283.956 218.351 282.786 218.6C281.129 218.937 279.296 219.059 277.638 218.635C277.359 218.582 276.806 218.441 276.768 218.072C276.502 215.088 276.052 209.644 275.826 208.551" stroke="#231F68" stroke-width="4.87303" stroke-linecap="round" stroke-linejoin="round"/>
<path d="M238.819 163.138C234.749 166.456 222.551 165.297 220.19 164.957C180.469 159.254 181.168 176.911 142.434 166.4C127.627 162.391 112.969 163.697 99.6416 156.095C86.3075 148.529 73.8453 148.948 60.9313 147.363C42.6461 145.083 56.1259 111.112 55.7122 92.7134C55.2777 72.1382 51.3074 51.6875 44.1464 32.4046C42.3207 27.5318 35.2978 24.0972 33.0412 19.3961C30.3633 13.6735 34.8563 10.7981 41.2162 8.38614C50.6273 4.77992 61.2392 4.18976 70.9557 6.97768C116.698 20.0516 163.167 29.6793 209.379 40.8512C219.036 43.1932 228.712 45.4304 238.207 48.4297C246.884 51.1649 257.148 54.3103 264.099 60.4104C273.252 68.4498 271.826 81.2854 272.127 92.2768C272.498 104.802 272.863 117.363 273.269 129.895C273.892 151.194 274.515 172.493 275.033 193.772C275.223 201.918 276.033 210.037 276.732 218.172" fill="#878FFF"/>
<path d="M238.819 163.138C234.749 166.456 222.551 165.297 220.19 164.957C180.469 159.254 181.168 176.911 142.434 166.4C127.627 162.391 112.969 163.697 99.6416 156.095C86.3075 148.529 73.8453 148.948 60.9313 147.363C42.6461 145.083 56.1259 111.112 55.7122 92.7134C55.2777 72.1382 51.3074 51.6875 44.1464 32.4046C42.3207 27.5318 35.2978 24.0972 33.0412 19.3961C30.3633 13.6735 34.8563 10.7981 41.2162 8.38614C50.6273 4.77992 61.2392 4.18976 70.9557 6.97768C116.698 20.0516 163.167 29.6793 209.379 40.8512C219.036 43.1932 228.712 45.4304 238.207 48.4297C246.884 51.1649 257.148 54.3103 264.099 60.4104C273.252 68.4498 271.826 81.2854 272.127 92.2768C272.498 104.802 272.863 117.363 273.269 129.895C273.892 151.194 274.515 172.493 275.033 193.772C275.223 201.918 276.033 210.037 276.732 218.172" stroke="#231F68" stroke-width="4.87303" stroke-linecap="round" stroke-linejoin="round"/>
<path d="M252.291 211.213C253.595 214.067 255.36 216.973 258.288 218.145C262.496 219.814 267.455 216.774 269.292 212.633C271.129 208.493 270.524 203.671 269.408 199.259C268.169 194.534 266.304 189.871 263.094 186.184C258.961 181.452 248.719 176.283 247.808 186.03C247.018 194.57 248.764 203.482 252.285 211.248L252.291 211.213Z" fill="#878FFF"/>
<path d="M36.3246 12.505L230.779 63.7974C240.538 66.557 254.499 74.0619 256.408 84.0194C259.672 101.331 262.863 141.691 256.779 207.046C256.209 213.093 250.256 217.175 244.415 215.522L39.856 157.385C34.2248 155.772 30.3591 150.584 30.4215 144.73L32.3209 15.4734C32.35 13.4151 34.3377 11.9102 36.3246 12.505Z" fill="#5A64AA"/>
<mask id="mask0_85_1391" style="mask-type:luminance" maskUnits="userSpaceOnUse" x="30" y="12" width="231" height="204">
<path d="M36.3246 12.5099L230.779 63.8023C240.538 66.5619 254.499 74.0668 256.408 84.0243C259.672 101.336 262.863 141.696 256.779 207.051C256.209 213.098 250.256 217.18 244.415 215.527L39.856 157.39C34.2248 155.777 30.3591 150.589 30.4215 144.735L32.3209 15.4782C32.35 13.42 34.3377 11.9151 36.3246 12.5099Z" fill="white"/>
</mask>
<g mask="url(#mask0_85_1391)">
<path opacity="0.5" d="M253.986 17.0853L197.398 36.835L257.116 207.94L313.704 188.19L253.986 17.0853Z" fill="white"/>
<path opacity="0.5" d="M185.541 36.1352L161.898 44.3867L223.749 221.604L247.392 213.352L185.541 36.1352Z" fill="white"/>
</g>
<path d="M36.3246 12.505L230.779 63.7974C240.538 66.557 254.499 74.0619 256.408 84.0194C259.672 101.331 262.863 141.691 256.779 207.046C256.209 213.093 250.256 217.175 244.415 215.522L39.856 157.385C34.2248 155.772 30.3591 150.584 30.4215 144.73L32.3209 15.4734C32.35 13.4151 34.3377 11.9102 36.3246 12.505Z" stroke="#231F68" stroke-width="4.87303" stroke-linecap="round" stroke-linejoin="round"/>
<g clip-path="url(#clip0_85_1391)">
<path d="M120.179 141.558C126.767 142.81 133.183 138.162 134.51 131.178C135.838 124.193 131.574 117.516 124.986 116.264C118.399 115.012 111.983 119.659 110.655 126.644C109.328 133.629 113.592 140.306 120.179 141.558Z" fill="#C6CCF7"/>
<path d="M137.823 131.456C138.24 129.125 138.631 126.596 139.135 124.281C140.49 118.028 141.842 111.789 143.196 105.536C144.442 99.7885 145.171 93.9985 146.21 88.198C146.487 86.6716 146.758 85.0469 146.278 83.5983C145.84 82.2684 144.819 81.2434 143.671 80.5542C140.872 78.8586 137.183 78.9472 134.366 80.7804C132.235 82.1624 130.666 84.496 130.037 87.0638C129.701 88.4267 129.788 89.7869 129.566 91.1575C129.306 92.7979 129.045 94.4383 128.782 96.0921C127.722 102.816 126.651 109.525 125.591 116.25" fill="#C6CCF7"/>
<path d="M137.823 131.456C138.24 129.125 138.631 126.596 139.135 124.281C140.49 118.028 141.842 111.789 143.196 105.536C144.442 99.7885 145.171 93.9985 146.21 88.198C146.487 86.6716 146.758 85.0469 146.278 83.5983C145.84 82.2684 144.819 81.2434 143.671 80.5542C140.872 78.8586 137.183 78.9472 134.366 80.7804C132.235 82.1624 130.666 84.496 130.037 87.0638C129.701 88.4267 129.788 89.7869 129.566 91.1575C129.306 92.7979 129.045 94.4383 128.782 96.0921C127.722 102.816 126.651 109.525 125.591 116.25" stroke="#1A174F" stroke-width="2.7066" stroke-linecap="round" stroke-linejoin="round"/>
<path d="M119.101 139.902C120.191 135.58 121.568 131.229 124.182 127.708C126.796 124.188 130.9 121.643 134.973 122.154C137.023 122.406 139.021 123.408 141.057 122.992C142.747 122.648 144.145 121.418 145.65 120.499C150.53 117.506 157.014 118.06 161.224 121.824C162.493 122.952 163.566 124.375 164.119 126.045C164.671 127.715 164.671 129.668 163.904 131.282C162.847 133.477 160.334 134.717 158.076 135.022C155.817 135.327 153.55 134.938 151.3 134.663C149.049 134.387 146.729 134.209 144.54 134.957C142.599 135.613 140.886 136.95 139.462 138.521C138.037 140.093 136.849 141.903 135.675 143.703C132.479 148.608 125.8 149.555 120.378 148.802C112.516 147.696 103.441 141.525 104.331 131.79C104.405 130.931 104.573 130.049 104.95 129.275C105.822 127.447 107.527 126.15 108.918 124.821C110.823 123.009 113.004 121.567 115.191 120.154C118.341 118.121 121.631 116.087 125.231 115.524" fill="#C6CCF7"/>
<path d="M119.101 139.902C120.191 135.58 121.568 131.229 124.182 127.708C126.796 124.188 130.9 121.643 134.973 122.154C137.023 122.406 139.021 123.408 141.057 122.992C142.747 122.648 144.145 121.418 145.65 120.499C150.53 117.506 157.014 118.06 161.224 121.824C162.493 122.952 163.566 124.375 164.119 126.045C164.671 127.715 164.671 129.668 163.904 131.282C162.847 133.477 160.334 134.717 158.076 135.022C155.817 135.327 153.55 134.938 151.3 134.663C149.049 134.387 146.729 134.209 144.54 134.957C142.599 135.613 140.886 136.95 139.462 138.521C138.037 140.093 136.849 141.903 135.675 143.703C132.479 148.608 125.8 149.555 120.378 148.802C112.516 147.696 103.441 141.525 104.331 131.79C104.405 130.931 104.573 130.049 104.95 129.275C105.822 127.447 107.527 126.15 108.918 124.821C110.823 123.009 113.004 121.567 115.191 120.154C118.341 118.121 121.631 116.087 125.231 115.524" stroke="#1A174F" stroke-width="2.7066" stroke-linecap="round" stroke-linejoin="round"/>
<path d="M115.022 105.598C111.752 104.09 107.655 104.78 104.859 107.31C102.325 109.599 100.965 113.122 100.47 116.601C100.022 119.702 100.205 122.978 101.528 125.709C102.851 128.44 105.488 130.52 108.38 130.516C110.595 130.507 112.682 129.353 114.676 128.222C115.707 127.642 116.728 127.046 117.76 126.467" fill="#C6CCF7"/>
<path d="M115.022 105.598C111.752 104.09 107.655 104.78 104.859 107.31C102.325 109.599 100.965 113.122 100.47 116.601C100.022 119.702 100.205 122.978 101.528 125.709C102.851 128.44 105.488 130.52 108.38 130.516C110.595 130.507 112.682 129.353 114.676 128.222C115.707 127.642 116.728 127.046 117.76 126.467" stroke="#1A174F" stroke-width="2.7066" stroke-linecap="round" stroke-linejoin="round"/>
<path d="M128.667 103.891C126.217 102.373 123.344 101.605 120.474 101.697C119.084 101.738 117.652 102.006 116.454 102.789C115.313 103.542 114.452 104.708 113.724 105.913C111.577 109.467 110.27 113.582 109.975 117.764C109.727 121.291 109.82 124.703 112.194 127.024C113.91 128.694 116.699 129.57 119.032 128.739C122.682 127.438 125.247 121.955 125.247 121.955C126.182 119.792 127.128 117.644 128.063 115.481" fill="#C6CCF7"/>
<path d="M128.667 103.891C126.217 102.373 123.344 101.605 120.474 101.697C119.084 101.738 117.652 102.006 116.454 102.789C115.313 103.542 114.452 104.708 113.724 105.913C111.577 109.467 110.27 113.582 109.975 117.764C109.727 121.291 109.82 124.703 112.194 127.024C113.91 128.694 116.699 129.57 119.032 128.739C122.682 127.438 125.247 121.955 125.247 121.955C126.182 119.792 127.128 117.644 128.063 115.481" stroke="#1A174F" stroke-width="2.7066" stroke-linecap="round" stroke-linejoin="round"/>
<path d="M124.072 124.507L125.62 116.226C126.451 110.982 127.308 105.729 128.114 100.48C128.699 96.6572 129.11 92.8151 129.767 89.02C130.289 86.0026 131.563 82.9341 133.973 81.0926C137.373 78.4836 143.649 78.5819 145.869 82.7163C146.805 84.4593 146.558 86.2962 146.222 88.1993C145.181 94.0132 144.451 99.8032 143.208 105.537L141.201 114.616" fill="#C6CCF7"/>
<path d="M124.072 124.507L125.62 116.226C126.451 110.982 127.308 105.729 128.114 100.48C128.699 96.6572 129.11 92.8151 129.767 89.02C130.289 86.0026 131.563 82.9341 133.973 81.0926C137.373 78.4836 143.649 78.5819 145.869 82.7163C146.805 84.4593 146.558 86.2962 146.222 88.1993C145.181 94.0132 144.451 99.8032 143.208 105.537L141.201 114.616" stroke="#1A174F" stroke-width="2.7066" stroke-linecap="round" stroke-linejoin="round"/>
</g>
<defs>
<clipPath id="clip0_85_1391">
<rect width="71.139" height="78.2529" fill="white" transform="translate(106.363 69.6953) rotate(10.7603)"/>
</clipPath>
</defs>
</svg>
