<svg width="294" height="145" viewBox="0 0 294 145" fill="none" xmlns="http://www.w3.org/2000/svg">
<path d="M44.734 69.408C39.806 69.408 35.23 68.6453 31.006 67.12C26.8406 65.536 23.2033 63.3067 20.094 60.432C17.0433 57.5573 14.6673 54.1547 12.966 50.224C11.2646 46.2933 10.414 41.952 10.414 37.2C10.414 32.448 11.2646 28.1067 12.966 24.176C14.6673 20.2453 17.0433 16.8427 20.094 13.968C23.2033 11.0933 26.8406 8.89333 31.006 7.368C35.23 5.784 39.806 4.992 44.734 4.992C50.7766 4.992 56.1153 6.048 60.75 8.16C65.4433 10.272 69.3153 13.3227 72.366 17.312L59.254 29.016C57.4353 26.728 55.4113 24.968 53.182 23.736C51.0113 22.4453 48.5473 21.8 45.79 21.8C43.6193 21.8 41.654 22.152 39.894 22.856C38.134 23.56 36.6086 24.5867 35.318 25.936C34.086 27.2853 33.118 28.928 32.414 30.864C31.71 32.7413 31.358 34.8533 31.358 37.2C31.358 39.5467 31.71 41.688 32.414 43.624C33.118 45.5013 34.086 47.1147 35.318 48.464C36.6086 49.8133 38.134 50.84 39.894 51.544C41.654 52.248 43.6193 52.6 45.79 52.6C48.5473 52.6 51.0113 51.984 53.182 50.752C55.4113 49.4613 57.4353 47.672 59.254 45.384L72.366 57.088C69.3153 61.0187 65.4433 64.0693 60.75 66.24C56.1153 68.352 50.7766 69.408 44.734 69.408ZM118.593 68V6.4H139.361V68H118.593ZM78.6408 68V6.4H99.4088V68H78.6408ZM98.0008 45.296V28.224H120.001V45.296H98.0008ZM150.247 68V6.4H171.015V68H150.247ZM181.893 68V6.4H202.661V51.896H230.469V68H181.893ZM237.085 68V6.4H257.853V51.896H285.661V68H237.085Z" fill="#1A174F"/>
<path d="M43.579 141.408C38.651 141.408 34.075 140.645 29.851 139.12C25.6857 137.536 22.0484 135.307 18.939 132.432C15.8884 129.557 13.5124 126.155 11.811 122.224C10.1097 118.293 9.25903 113.952 9.25903 109.2C9.25903 104.448 10.1097 100.107 11.811 96.176C13.5124 92.2453 15.8884 88.8427 18.939 85.968C22.0484 83.0933 25.6857 80.8933 29.851 79.368C34.075 77.784 38.651 76.992 43.579 76.992C49.6217 76.992 54.9604 78.048 59.595 80.16C64.2884 82.272 68.1604 85.3227 71.211 89.312L58.099 101.016C56.2804 98.728 54.2564 96.968 52.027 95.736C49.8564 94.4453 47.3924 93.8 44.635 93.8C42.4644 93.8 40.499 94.152 38.739 94.856C36.979 95.56 35.4537 96.5867 34.163 97.936C32.931 99.2853 31.963 100.928 31.259 102.864C30.555 104.741 30.203 106.853 30.203 109.2C30.203 111.547 30.555 113.688 31.259 115.624C31.963 117.501 32.931 119.115 34.163 120.464C35.4537 121.813 36.979 122.84 38.739 123.544C40.499 124.248 42.4644 124.6 44.635 124.6C47.3924 124.6 49.8564 123.984 52.027 122.752C54.2564 121.461 56.2804 119.672 58.099 117.384L71.211 129.088C68.1604 133.019 64.2884 136.069 59.595 138.24C54.9604 140.352 49.6217 141.408 43.579 141.408ZM129.371 140V78.4H150.139V140H129.371ZM191.993 141.408C187.065 141.408 182.489 140.645 178.265 139.12C174.1 137.536 170.462 135.307 167.353 132.432C164.302 129.557 161.926 126.155 160.225 122.224C158.524 118.293 157.673 113.952 157.673 109.2C157.673 104.448 158.524 100.107 160.225 96.176C161.926 92.2453 164.302 88.8427 167.353 85.968C170.462 83.0933 174.1 80.8933 178.265 79.368C182.489 77.784 187.065 76.992 191.993 76.992C198.036 76.992 203.374 78.048 208.009 80.16C212.702 82.272 216.574 85.3227 219.625 89.312L206.513 101.016C204.694 98.728 202.67 96.968 200.441 95.736C198.27 94.4453 195.806 93.8 193.049 93.8C190.878 93.8 188.913 94.152 187.153 94.856C185.393 95.56 183.868 96.5867 182.577 97.936C181.345 99.2853 180.377 100.928 179.673 102.864C178.969 104.741 178.617 106.853 178.617 109.2C178.617 111.547 178.969 113.688 179.673 115.624C180.377 117.501 181.345 119.115 182.577 120.464C183.868 121.813 185.393 122.84 187.153 123.544C188.913 124.248 190.878 124.6 193.049 124.6C195.806 124.6 198.27 123.984 200.441 122.752C202.67 121.461 204.694 119.672 206.513 117.384L219.625 129.088C216.574 133.019 212.702 136.069 208.009 138.24C203.374 140.352 198.036 141.408 191.993 141.408ZM243.588 126.8L242.444 104.008L265.676 78.4H288.292L262.244 107.088L250.716 118.88L243.588 126.8ZM225.02 140V78.4H245.436V140H225.02ZM265.5 140L247.372 116.064L260.836 101.808L289.524 140H265.5Z" fill="#6F00FF"/>
<path d="M89.0702 133.383C95.0967 133.383 99.9821 128.522 99.9821 122.525C99.9821 116.529 95.0967 111.667 89.0702 111.667C83.0437 111.667 78.1582 116.529 78.1582 122.525C78.1582 128.522 83.0437 133.383 89.0702 133.383Z" fill="white"/>
<path d="M102.96 122.227C102.938 120.23 102.858 118.072 102.915 116.075C103.062 110.681 103.209 105.298 103.355 99.9035C103.491 94.9452 103.163 90.0329 103.107 85.0631C103.096 83.7547 103.062 82.3659 102.395 81.2411C101.785 80.2082 100.712 79.5195 99.5826 79.1293C96.8264 78.1652 93.5844 78.8194 91.4043 80.782C89.7551 82.2626 88.761 84.4433 88.6367 86.67C88.569 87.8521 88.874 88.9655 88.9079 90.1362C88.953 91.5364 88.9982 92.9367 89.0434 94.3484C89.2354 100.087 89.4162 105.814 89.6082 111.553" fill="white"/>
<path d="M102.96 122.227C102.938 120.23 102.858 118.072 102.915 116.075C103.062 110.681 103.209 105.298 103.355 99.9035C103.491 94.9452 103.163 90.0329 103.107 85.0631C103.096 83.7547 103.062 82.3659 102.395 81.2411C101.785 80.2082 100.712 79.5195 99.5826 79.1293C96.8264 78.1652 93.5844 78.8194 91.4043 80.782C89.7551 82.2626 88.761 84.4433 88.6367 86.67C88.569 87.8521 88.874 88.9655 88.9079 90.1362C88.953 91.5364 88.9982 92.9367 89.0434 94.3484C89.2354 100.087 89.4162 105.814 89.6082 111.553" stroke="#1A174F" stroke-width="2.0625" stroke-linecap="round" stroke-linejoin="round"/>
<path d="M87.8539 132.178C88.0911 128.425 88.5768 124.603 90.2938 121.275C92.0108 117.946 95.2076 115.191 98.8901 114.973C100.743 114.859 102.674 115.375 104.403 114.709C105.837 114.159 106.865 112.919 108.04 111.92C111.847 108.672 117.664 108.11 122.013 110.566C123.323 111.301 124.509 112.311 125.278 113.608C126.046 114.905 126.373 116.523 125.967 117.981C125.402 119.966 123.391 121.389 121.448 121.998C119.505 122.606 117.438 122.64 115.405 122.767C113.372 122.893 111.293 123.111 109.486 124.075C107.882 124.924 106.594 126.302 105.6 127.828C104.606 129.355 103.86 131.042 103.126 132.718C101.127 137.286 95.3883 139.122 90.4745 139.352C83.3467 139.673 74.2986 135.989 73.4514 127.782C73.3723 127.059 73.3723 126.302 73.5757 125.602C74.0388 123.949 75.3266 122.606 76.3319 121.286C77.71 119.484 79.3931 117.946 81.0875 116.431C83.5275 114.25 86.0917 112.047 89.1755 111.014" fill="white"/>
<path d="M87.8539 132.178C88.0911 128.425 88.5768 124.603 90.2938 121.275C92.0108 117.946 95.2076 115.191 98.8901 114.973C100.743 114.859 102.674 115.375 104.403 114.709C105.837 114.159 106.865 112.919 108.04 111.92C111.847 108.672 117.664 108.11 122.013 110.566C123.323 111.301 124.509 112.311 125.278 113.608C126.046 114.905 126.373 116.523 125.967 117.981C125.402 119.966 123.391 121.389 121.448 121.998C119.505 122.606 117.438 122.64 115.405 122.767C113.372 122.893 111.293 123.111 109.486 124.075C107.882 124.924 106.594 126.302 105.6 127.828C104.606 129.355 103.86 131.042 103.126 132.718C101.127 137.286 95.3883 139.122 90.4745 139.352C83.3467 139.673 74.2986 135.989 73.4514 127.782C73.3723 127.059 73.3723 126.302 73.5757 125.602C74.0388 123.949 75.3266 122.606 76.3319 121.286C77.71 119.484 79.3931 117.946 81.0875 116.431C83.5275 114.25 86.0917 112.047 89.1755 111.014" stroke="#1A174F" stroke-width="2.0625" stroke-linecap="round" stroke-linejoin="round"/>
<path d="M78.492 104.391C75.3517 103.656 71.85 104.873 69.8054 107.41C67.9528 109.705 67.3428 112.838 67.4897 115.8C67.614 118.439 68.3256 121.125 69.9522 123.18C71.5789 125.234 74.256 126.543 76.8089 126.083C78.7631 125.728 80.4124 124.442 81.9825 123.191C82.7958 122.548 83.5978 121.894 84.4112 121.251" fill="white"/>
<path d="M78.492 104.391C75.3517 103.656 71.85 104.873 69.8054 107.41C67.9528 109.705 67.3428 112.838 67.4897 115.8C67.614 118.439 68.3256 121.125 69.9522 123.18C71.5789 125.234 74.256 126.543 76.8089 126.083C78.7631 125.728 80.4124 124.442 81.9825 123.191C82.7958 122.548 83.5978 121.894 84.4112 121.251" stroke="#1A174F" stroke-width="2.0625" stroke-linecap="round" stroke-linejoin="round"/>
<path d="M90.2507 100.831C87.8334 99.9589 85.1675 99.7753 82.6485 100.303C81.4285 100.556 80.2085 101.003 79.2823 101.841C78.4012 102.645 77.8364 103.747 77.3958 104.86C76.0968 108.142 75.6336 111.758 76.0742 115.27C76.4469 118.231 77.1021 121.043 79.5872 122.593C81.3833 123.706 83.9927 123.993 85.913 122.937C88.9178 121.284 90.262 116.337 90.262 116.337C90.7251 114.398 91.1996 112.469 91.6627 110.53" fill="white"/>
<path d="M90.2507 100.831C87.8334 99.9589 85.1675 99.7753 82.6485 100.303C81.4285 100.556 80.2085 101.003 79.2823 101.841C78.4012 102.645 77.8364 103.747 77.3958 104.86C76.0968 108.142 75.6336 111.758 76.0742 115.27C76.4469 118.231 77.1021 121.043 79.5872 122.593C81.3833 123.706 83.9927 123.993 85.913 122.937C88.9178 121.284 90.262 116.337 90.262 116.337C90.7251 114.398 91.1996 112.469 91.6627 110.53" stroke="#1A174F" stroke-width="2.0625" stroke-linecap="round" stroke-linejoin="round"/>
<path d="M89.6571 118.635L89.6345 111.53C89.4877 107.054 89.3634 102.566 89.194 98.0901C89.0697 94.8305 88.7873 91.5824 88.7308 88.3342C88.6856 85.7518 89.2956 83.0087 91.1143 81.1034C93.6785 78.4062 99.2361 77.4995 101.891 80.5755C103.009 81.8724 103.099 83.4334 103.122 85.0632C103.178 90.0444 103.506 94.9567 103.37 99.9035L103.122 107.743" fill="white"/>
<path d="M89.6571 118.635L89.6345 111.53C89.4877 107.054 89.3634 102.566 89.194 98.0901C89.0697 94.8305 88.7873 91.5824 88.7308 88.3342C88.6856 85.7518 89.2956 83.0087 91.1143 81.1034C93.6785 78.4062 99.2361 77.4995 101.891 80.5755C103.009 81.8724 103.099 83.4334 103.122 85.0632C103.178 90.0444 103.506 94.9567 103.37 99.9035L103.122 107.743" stroke="#1A174F" stroke-width="2.0625" stroke-linecap="round" stroke-linejoin="round"/>
<path d="M103.139 107.409L103.094 109.108" stroke="#1A174F" stroke-width="2.0625" stroke-linecap="round" stroke-linejoin="round"/>
</svg>
