<svg width="498" height="388" viewBox="0 0 498 388" fill="none" xmlns="http://www.w3.org/2000/svg">
<path d="M394.564 114.964L315.816 80.1479C304.026 74.9353 290.243 80.2673 285.031 92.0571L216.006 248.177C210.794 259.967 216.126 273.75 227.915 278.963L306.663 313.779C318.453 318.992 332.236 313.66 337.449 301.87L406.473 145.75C411.686 133.96 406.354 120.177 394.564 114.964Z" fill="#878FFF" stroke="#231F68" stroke-width="5.18682"/>
<mask id="mask0_235_1810" style="mask-type:luminance" maskUnits="userSpaceOnUse" x="211" y="75" width="201" height="244">
<path d="M394.568 114.96L315.82 80.144C304.03 74.9314 290.247 80.2634 285.034 92.0532L216.01 248.173C210.798 259.963 216.129 273.746 227.919 278.959L306.667 313.775C318.457 318.988 332.24 313.656 337.453 301.866L406.477 145.746C411.69 133.956 406.358 120.173 394.568 114.96Z" fill="white" stroke="white" stroke-width="5.18682"/>
</mask>
<g mask="url(#mask0_235_1810)">
<path opacity="0.5" d="M362.894 72.4362L342.795 48.4052L136.82 220.68L156.919 244.711L362.894 72.4362Z" fill="white" stroke="#231F68" stroke-width="5.18682"/>
<path opacity="0.5" d="M378.12 110.763L363.944 93.8143L199.825 231.081L214.001 248.03L378.12 110.763Z" fill="white" stroke="#231F68" stroke-width="5.18682"/>
</g>
<path d="M316.865 77.776L395.613 112.592C408.713 118.384 414.637 133.699 408.845 146.798L339.821 302.919C334.029 316.019 318.714 321.943 305.615 316.151L226.867 281.335C213.767 275.543 207.843 260.229 213.634 247.129L282.659 91.0084C288.45 77.9086 303.765 71.9842 316.865 77.776Z" stroke="#231F68" stroke-width="5.87881" stroke-linecap="round" stroke-linejoin="round"/>
<path d="M376.646 108.398L297.898 73.5815C286.108 68.3689 272.325 73.7009 267.113 85.4907L198.088 241.611C192.876 253.401 198.208 267.184 209.997 272.397L288.745 307.213C300.535 312.425 314.318 307.093 319.531 295.304L388.555 139.183C393.768 127.393 388.436 113.61 376.646 108.398Z" fill="#8188C9" stroke="#231F68" stroke-width="5.18682"/>
<mask id="mask1_235_1810" style="mask-type:luminance" maskUnits="userSpaceOnUse" x="193" y="68" width="201" height="244">
<path d="M376.63 108.388L297.883 73.5717C286.093 68.3592 272.31 73.6911 267.097 85.4809L198.073 241.601C192.86 253.391 198.192 267.174 209.982 272.387L288.73 307.203C300.52 312.416 314.303 307.084 319.515 295.294L388.54 139.174C393.752 127.384 388.42 113.601 376.63 108.388Z" fill="white" stroke="white" stroke-width="5.18682"/>
</mask>
<g mask="url(#mask1_235_1810)">
<path opacity="0.5" d="M316.729 69.8969L353.242 69.4805L356.363 343.171L319.851 343.588L316.729 69.8969Z" fill="white"/>
<path opacity="0.5" d="M365.176 82.2974L392.457 81.9863L394.956 301.115L367.675 301.426L365.176 82.2974Z" fill="white"/>
<path d="M365.125 115.64L300.272 86.9675C290.522 82.6568 278.561 87.7075 273.712 98.6757L211.835 238.631C206.986 249.599 211.299 261.845 221.049 266.155L285.902 294.828C295.652 299.139 307.612 294.088 312.462 283.12L374.339 143.165C379.188 132.197 374.875 119.951 365.125 115.64Z" fill="#FFF2E5" stroke="#231F68" stroke-width="3.60137"/>
</g>
<path d="M298.947 71.2096L377.695 106.026C390.795 111.818 396.719 127.132 390.927 140.232L321.903 296.352C316.111 309.452 300.797 315.376 287.697 309.585L208.949 274.768C195.849 268.977 189.925 253.662 195.716 240.562L264.741 84.442C270.532 71.3422 285.847 65.4178 298.947 71.2096Z" stroke="#231F68" stroke-width="5.60578" stroke-linecap="round" stroke-linejoin="round"/>
<circle cx="8.81821" cy="8.81821" r="8.81821" transform="matrix(-0.619191 -0.785241 -0.785241 0.619191 273.629 262.859)" fill="#1A174F"/>
<rect x="355.258" y="158.179" width="88.1821" height="27.0019" rx="5.87881" transform="rotate(-155.938 355.258 158.179)" fill="#1A174F"/>
<rect x="343.047" y="185.519" width="88.1821" height="27.0019" rx="5.87881" transform="rotate(-155.938 343.047 185.519)" fill="#1A174F"/>
<rect x="330.84" y="212.858" width="88.1821" height="27.0019" rx="5.87881" transform="rotate(-155.938 330.84 212.858)" fill="#1A174F"/>
<path d="M185.274 73.1879L102.052 95.2691C89.5929 98.575 82.1723 111.355 85.4782 123.815L129.255 288.804C132.561 301.264 145.341 308.685 157.801 305.379L241.022 283.298C253.482 279.992 260.903 267.211 257.597 254.752L213.82 89.7621C210.514 77.3025 197.734 69.882 185.274 73.1879Z" fill="#878FFF" stroke="#231F68" stroke-width="5.18682"/>
<mask id="mask2_235_1810" style="mask-type:luminance" maskUnits="userSpaceOnUse" x="82" y="69" width="179" height="240">
<path d="M185.282 73.184L102.06 95.2652C89.6007 98.5711 82.1801 111.352 85.486 123.811L129.263 288.801C132.569 301.26 145.349 308.681 157.809 305.375L241.03 283.294C253.49 279.988 260.91 267.207 257.604 254.748L213.828 89.7582C210.522 77.2986 197.742 69.8781 185.282 73.184Z" fill="white" stroke="white" stroke-width="5.18682"/>
</mask>
<g mask="url(#mask2_235_1810)">
<path opacity="0.5" d="M133.973 59.8432L103.261 53.6616L50.2767 316.904L80.9892 323.086L133.973 59.8432Z" fill="white" stroke="#231F68" stroke-width="5.18682"/>
<path opacity="0.5" d="M169.825 80.227L148.163 75.8671L105.946 285.617L127.607 289.977L169.825 80.227Z" fill="white" stroke="#231F68" stroke-width="5.18682"/>
</g>
<path d="M101.387 92.7624L184.609 70.6812C198.453 67.008 212.654 75.253 216.327 89.097L260.103 254.087C263.777 267.931 255.531 282.131 241.688 285.804L158.466 307.885C144.622 311.559 130.421 303.314 126.748 289.47L82.9716 124.48C79.2983 110.636 87.5434 96.4356 101.387 92.7624Z" stroke="#231F68" stroke-width="5.87881" stroke-linecap="round" stroke-linejoin="round"/>
<path d="M167.169 79.2729L83.947 101.354C71.4874 104.66 64.0669 117.44 67.3728 129.9L111.149 294.889C114.455 307.349 127.236 314.77 139.695 311.464L222.917 289.383C235.377 286.077 242.797 273.296 239.491 260.837L195.715 95.8471C192.409 83.3875 179.628 75.967 167.169 79.2729Z" fill="#8188C9" stroke="#231F68" stroke-width="5.18682"/>
<mask id="mask3_235_1810" style="mask-type:luminance" maskUnits="userSpaceOnUse" x="63" y="75" width="180" height="240">
<path d="M167.153 79.2797L83.9314 101.361C71.4718 104.667 64.0513 117.447 67.3572 129.907L111.134 294.896C114.44 307.356 127.22 314.776 139.68 311.471L222.901 289.389C235.361 286.083 242.781 273.303 239.476 260.843L195.699 95.8539C192.393 83.3943 179.613 75.9738 167.153 79.2797Z" fill="white" stroke="white" stroke-width="5.18682"/>
</mask>
<g mask="url(#mask3_235_1810)">
<path opacity="0.5" d="M96.3433 86.7214L124.574 63.5615L298.175 275.173L269.944 298.333L96.3433 86.7214Z" fill="white"/>
<path opacity="0.5" d="M141.899 66.099L162.992 48.7949L301.984 218.22L280.891 235.524L141.899 66.099Z" fill="white"/>
<path d="M162.713 92.1485L94.1758 110.333C83.8719 113.067 77.6976 124.488 80.7731 136.08L120.017 283.985C123.092 295.577 134.117 302.435 144.421 299.701L212.957 281.516C223.261 278.782 229.436 267.361 226.36 255.769L187.116 107.864C184.041 96.2725 173.017 89.4146 162.713 92.1485Z" fill="#FFF2E5" stroke="#231F68" stroke-width="3.60137"/>
</g>
<path d="M83.2819 98.8473L166.504 76.7662C180.348 73.093 194.548 81.338 198.221 95.182L241.998 260.171C245.671 274.015 237.426 288.216 223.582 291.889L140.36 313.97C126.516 317.644 112.316 309.399 108.643 295.555L64.8661 130.565C61.1929 116.721 69.4379 102.521 83.2819 98.8473Z" stroke="#231F68" stroke-width="5.60578" stroke-linecap="round" stroke-linejoin="round"/>
<circle cx="8.81821" cy="8.81821" r="8.81821" transform="matrix(-0.974245 -0.225491 -0.225491 0.974245 183.387 264.248)" fill="#1A174F"/>
<rect x="181.926" y="130.147" width="88.1821" height="27.0019" rx="5.87881" transform="rotate(165.35 181.926 130.147)" fill="#1A174F"/>
<g clip-path="url(#clip0_235_1810)">
<rect x="180.016" y="161.594" width="68.5803" height="27.0019" rx="5.87881" transform="rotate(165.35 180.016 161.594)" fill="#6F00FF"/>
</g>
<rect x="197.07" y="188.083" width="88.1821" height="27.0019" rx="5.87881" transform="rotate(165.35 197.07 188.083)" fill="#1A174F"/>
<g clip-path="url(#clip1_235_1810)">
<rect x="195.16" y="219.53" width="68.5803" height="27.0019" rx="13.501" transform="rotate(165.35 195.16 219.53)" fill="#6F00FF"/>
</g>
<defs>
<clipPath id="clip0_235_1810">
<rect x="180.016" y="161.594" width="68.5803" height="27.0019" rx="5.87881" transform="rotate(165.35 180.016 161.594)" fill="white"/>
</clipPath>
<clipPath id="clip1_235_1810">
<rect x="195.16" y="219.53" width="68.5803" height="27.0019" rx="13.501" transform="rotate(165.35 195.16 219.53)" fill="white"/>
</clipPath>
</defs>
</svg>
